<svg width="625" height="198" viewBox="0 0 625 198" fill="none" xmlns="http://www.w3.org/2000/svg">
<g clip-path="url(#clip0)">
<path d="M65.5405 63.5734C51.8362 63.5734 44.984 68.7353 44.984 79.0593C44.984 84.8151 46.5372 88.7893 49.6435 90.982C52.8411 93.0834 59.2365 95.2304 68.8295 97.4231C78.5139 99.5244 85.3661 102.311 89.386 105.783C93.4059 109.163 95.4159 114.782 95.4159 122.639C95.4159 142.099 85.3204 151.829 65.1293 151.829C58.4599 151.829 50.1003 151.053 40.0504 149.499L35.1169 148.814L36.2132 140.043C48.6385 141.688 58.0945 142.51 64.5812 142.51C78.1028 142.51 84.8636 136.161 84.8636 123.461C84.8636 118.345 83.3561 114.691 80.3411 112.498C77.4176 110.214 71.8901 108.295 63.7589 106.742C53.0695 104.458 45.4865 101.534 41.0097 97.9712C36.533 94.3167 34.2946 88.2412 34.2946 79.7445C34.2946 62.7511 44.4815 54.2545 64.8553 54.2545C71.5247 54.2545 79.5189 54.9397 88.8378 56.3101L93.4973 56.9953L92.538 65.9031C79.8387 64.35 70.8395 63.5734 65.5405 63.5734ZM111.86 150.596V82.0742H122.138V150.596H111.86ZM111.86 66.5883V54.6656H122.138V66.5883H111.86ZM152.116 150.596H141.838V82.0742H151.979V86.8707C158.832 82.7594 165.501 80.7038 171.988 80.7038C180.484 80.7038 186.423 83.0335 189.803 87.693C192.818 85.8658 196.701 84.2669 201.452 82.8965C206.294 81.4347 210.543 80.7038 214.197 80.7038C223.333 80.7038 229.455 83.1706 232.561 88.1041C235.758 92.9463 237.357 101.717 237.357 114.416V150.596H227.079V114.691C227.079 105.189 226.165 98.7021 224.338 95.2304C222.511 91.6672 218.628 89.8857 212.69 89.8857C209.675 89.8857 206.568 90.3425 203.371 91.2561C200.173 92.0784 197.706 92.9006 195.97 93.7229L193.366 94.9563C194.554 97.9712 195.148 104.641 195.148 114.965V150.596H184.87V115.239C184.87 105.372 183.956 98.7021 182.129 95.2304C180.393 91.6672 176.51 89.8857 170.48 89.8857C167.557 89.8857 164.542 90.3425 161.435 91.2561C158.42 92.0784 156.091 92.9006 154.446 93.7229L152.116 94.9563V150.596ZM256.398 181.019V82.0742H266.539V87.0078C273.482 82.8051 280.335 80.7038 287.095 80.7038C295.775 80.7038 302.079 83.4903 306.007 89.0634C309.936 94.5452 311.9 103.636 311.9 116.335C311.9 129.034 309.571 138.171 304.911 143.744C300.343 149.225 292.714 151.966 282.025 151.966C276.452 151.966 271.335 151.464 266.676 150.459V181.019H256.398ZM285.588 89.8857C282.847 89.8857 279.878 90.3425 276.68 91.2561C273.574 92.1697 271.107 93.0834 269.28 93.997L266.676 95.3674V141.551C273.163 142.556 278.096 143.058 281.477 143.058C288.877 143.058 294.039 140.957 296.963 136.754C299.977 132.552 301.485 125.7 301.485 116.198C301.485 106.696 300.115 99.9355 297.374 95.9156C294.724 91.8957 290.796 89.8857 285.588 89.8857ZM329.489 150.596V52.1988H339.767V150.596H329.489ZM406.979 142.099L410.954 141.688L411.228 149.774C400.812 151.235 391.905 151.966 384.504 151.966C374.637 151.966 367.648 149.134 363.537 143.47C359.425 137.714 357.37 128.806 357.37 116.746C357.37 92.7179 366.917 80.7038 386.012 80.7038C395.239 80.7038 402.137 83.3076 406.705 88.5153C411.273 93.6315 413.557 101.717 413.557 112.772L413.009 120.583H367.785C367.785 128.166 369.155 133.785 371.896 137.44C374.637 141.094 379.388 142.921 386.149 142.921C393.001 142.921 399.944 142.647 406.979 142.099ZM403.279 112.361C403.279 103.955 401.909 98.0169 399.168 94.5452C396.518 91.0734 392.133 89.3375 386.012 89.3375C379.982 89.3375 375.414 91.1648 372.307 94.8192C369.292 98.4737 367.739 104.321 367.648 112.361H403.279Z" fill="white"/>
<path d="M506.3 177.6C544.021 177.6 574.6 147.245 574.6 109.8C574.6 72.3551 544.021 42 506.3 42C468.579 42 438 72.3551 438 109.8C438 147.245 468.579 177.6 506.3 177.6Z" fill="white"/>
<path d="M539.5 78.9999C538.5 65.2999 528.5 66.2999 528.5 66.2999H484.5C472.5 66.2999 472.6 78.4999 472.6 78.4999C472.6 78.4999 471.6 87.0999 477.5 92.1999L501.5 112.2V102.2C501.5 102.2 501.5 97.1999 506.8 97.1999H528.5C528.5 97.1999 533.3 97.2999 536.5 92.1999C538.3 89.6999 539.5 85.6999 539.5 78.9999Z" fill="#E63C50"/>
<path d="M472.6 140.7C473.6 154.4 483.6 153.4 483.6 153.4H527.6C539.6 153.4 539.5 141.2 539.5 141.2C539.5 141.2 540.5 132.6 534.6 127.5L510.6 107.5V117.5C510.6 117.5 510.6 122.5 505.3 122.5H483.6C483.6 122.5 478.8 122.4 475.6 127.5C473.8 130.1 472.6 134 472.6 140.7Z" fill="#E63C50"/>
</g>
<defs>
<clipPath id="clip0">
<rect width="625" height="198" fill="white"/>
</clipPath>
</defs>
</svg>
